{
 "cells": [
  {
   "cell_type": "markdown",
   "metadata": {},
   "source": [
    "# Define variables"
   ]
  },
  {
   "cell_type": "code",
   "execution_count": 11,
   "metadata": {},
   "outputs": [],
   "source": [
    "import pathlib\n",
    "import os\n",
    "import subprocess\n",
    "\n",
    "watermark_path = pathlib.Path(\"/home/ubuntu/Documents/animations_singapore/Logo final.png\")\n",
    "root_path_dir = pathlib.Path(f\"/home/ubuntu/Documents/animations_singapore/complex_roof\")\n",
    "images_case = \"2d\"\n",
    "\n",
    "# images_case = \"animation_vortex\"\n",
    "\n",
    "# watermark_position = (5,5)\n",
    "# watermark_position = (5,690)\n",
    "watermark_position = (1130,30)\n",
    "watermark_scale = .2\n",
    "\n",
    "crop_margins = (0, 0, 0, 0)\n",
    "\n",
    "gif_size_list = [1920, 1080]\n",
    "speed_multiplier_list = [1.0]\n",
    "framerate_default = 13\n",
    "\n",
    "test_single_image = False\n",
    "add_watermark_to_images = False\n",
    "turn_into_video = True\n",
    "generate_intermediate_frames = True\n",
    "target_framerate = 24\n"
   ]
  },
  {
   "cell_type": "markdown",
   "metadata": {},
   "source": [
    "# Adds watermarks"
   ]
  },
  {
   "cell_type": "code",
   "execution_count": 12,
   "metadata": {},
   "outputs": [],
   "source": [
    "from PIL import Image\n",
    "import pathlib\n",
    "\n",
    "def add_watermark_to_image(\n",
    "    image: Image, watermark: Image, watermark_position: tuple, \n",
    ") -> Image:\n",
    "    image.paste(watermark, watermark_position, watermark)\n",
    "    return image\n",
    "\n",
    "def rescale_image(image: Image, image_scale: float) -> Image:\n",
    "    new_width = int(image.width*image_scale)\n",
    "    new_height = int(image.height*image_scale)\n",
    "    image = image.resize((new_width, new_height), Image.Resampling.LANCZOS)\n",
    "    return image\n",
    "\n",
    "def crop_image_margins(\n",
    "    image: pathlib.Path, crop_margins: tuple\n",
    ") -> Image:\n",
    "    w, h =  image.width, image.height\n",
    "    image = image.crop((crop_margins[0], crop_margins[1], w-crop_margins[2], h-crop_margins[3]))\n",
    "    return image"
   ]
  },
  {
   "cell_type": "code",
   "execution_count": 13,
   "metadata": {},
   "outputs": [],
   "source": [
    "def process_image(image: Image, crop_margins: tuple, watermark_position: tuple=None, watermark: Image=None) -> Image:\n",
    "    image = crop_image_margins(image=image, crop_margins=crop_margins)\n",
    "    image = add_watermark_to_image(image=image, watermark=watermark, watermark_position=watermark_position)\n",
    "    return image"
   ]
  },
  {
   "cell_type": "code",
   "execution_count": 14,
   "metadata": {},
   "outputs": [],
   "source": [
    "def generate_mp4_from_images(images_dir: pathlib.Path, video_dir: pathlib.Path, image_size: int, speed_multiplier: float):\n",
    "    mp4_file = video_dir/f\"{images_dir.stem}_size{image_size}_speed{speed_multiplier}.mp4\"\n",
    "    mp4_file.unlink(missing_ok=True)\n",
    "    command = f'ffmpeg -framerate {framerate_default} -pattern_type glob -i \"{images_dir}/*.png\" \\\n",
    "    -filter_complex \"setpts={1/speed_multiplier}*PTS,scale={image_size}:-2:flags=lanczos\" \\\n",
    "    -c:v libx264 -preset slow -crf 24 -pix_fmt yuv420p \"{mp4_file}\"'\n",
    "    print(\"command:\", command)\n",
    "    try:\n",
    "        print(os.getcwd())\n",
    "        subprocess.run(command, shell=True, check=True)\n",
    "    except subprocess.CalledProcessError as e:\n",
    "        print(f\"Error: {e}\")\n",
    "    return mp4_file"
   ]
  },
  {
   "cell_type": "code",
   "execution_count": 15,
   "metadata": {},
   "outputs": [],
   "source": [
    "def generate_frames_for_video(video_file: pathlib.Path):\n",
    "    output_path = video_file.parent/f\"{video_file.stem}_interpolated.mp4\"\n",
    "    command = f'ffmpeg -y -i \"{video_file}\" -filter_complex \"[0:v]minterpolate=mi_mode=mci:mc_mode=none:me_mode=bidir:fps={target_framerate}[v];[v]setpts=1*PTS\" \"{output_path}\"'\n",
    "    print(\"command:\", command)\n",
    "    try:\n",
    "        print(os.getcwd())\n",
    "        subprocess.run(command, shell=True, check=True)\n",
    "    except subprocess.CalledProcessError as e:\n",
    "        print(f\"Error: {e}\")"
   ]
  },
  {
   "cell_type": "code",
   "execution_count": 16,
   "metadata": {},
   "outputs": [],
   "source": [
    "path_use_root = root_path_dir / images_case\n",
    "\n",
    "images_path_dir = path_use_root / \"raw\"\n",
    "images_with_watermark_path_dir = path_use_root/ f\"watermarked/\"\n",
    "videos_path = path_use_root/ f\"videos/\"\n",
    "\n",
    "images_with_watermark_path_dir.mkdir(parents=True, exist_ok=True)\n",
    "videos_path.mkdir(parents=True, exist_ok=True)\n",
    "\n",
    "\n",
    "# sorted([im for im in images_path_dir.iterdir()])"
   ]
  },
  {
   "cell_type": "code",
   "execution_count": 17,
   "metadata": {},
   "outputs": [],
   "source": [
    "if test_single_image:\n",
    "    sample_file_path = next(images_path_dir.iterdir())\n",
    "    sample_file = Image.open(sample_file_path)\n",
    "    watermark = Image.open(watermark_path)\n",
    "    watermark = rescale_image(image=watermark, image_scale=watermark_scale)\n",
    "    img = process_image(image=sample_file, crop_margins=crop_margins ,watermark_position=watermark_position, watermark=watermark)\n",
    "    img.save(images_with_watermark_path_dir/sample_file_path.name)"
   ]
  },
  {
   "cell_type": "code",
   "execution_count": 18,
   "metadata": {},
   "outputs": [],
   "source": [
    "if add_watermark_to_images:\n",
    "    watermark = Image.open(watermark_path)\n",
    "    watermark = rescale_image(image=watermark, image_scale=watermark_scale)\n",
    "    for item in sorted([im for im in images_path_dir.iterdir()]):\n",
    "        if item.is_dir():\n",
    "            continue\n",
    "        else:\n",
    "            try:\n",
    "                # print(item.name)\n",
    "                with Image.open(item) as img:\n",
    "                    img = process_image(image=img, crop_margins=crop_margins, watermark_position=watermark_position, watermark=watermark)\n",
    "                    img.save(images_with_watermark_path_dir/item.name)\n",
    "            except IOError:\n",
    "                continue"
   ]
  },
  {
   "cell_type": "code",
   "execution_count": 19,
   "metadata": {},
   "outputs": [
    {
     "name": "stdout",
     "output_type": "stream",
     "text": [
      "command: ffmpeg -framerate 13 -pattern_type glob -i \"/home/ubuntu/Documents/animations_singapore/complex_roof/2d/watermarked/*.png\"     -filter_complex \"setpts=1.0*PTS,scale=1920:-2:flags=lanczos\"     -c:v libx264 -preset slow -crf 24 -pix_fmt yuv420p \"/home/ubuntu/Documents/animations_singapore/complex_roof/2d/videos/watermarked_size1920_speed1.0.mp4\"\n",
      "/home/ubuntu/Documents/animations_singapore\n"
     ]
    },
    {
     "name": "stderr",
     "output_type": "stream",
     "text": [
      "ffmpeg version 6.1.1-3ubuntu5 Copyright (c) 2000-2023 the FFmpeg developers\n",
      "  built with gcc 13 (Ubuntu 13.2.0-23ubuntu3)\n",
      "  configuration: --prefix=/usr --extra-version=3ubuntu5 --toolchain=hardened --libdir=/usr/lib/x86_64-linux-gnu --incdir=/usr/include/x86_64-linux-gnu --arch=amd64 --enable-gpl --disable-stripping --disable-omx --enable-gnutls --enable-libaom --enable-libass --enable-libbs2b --enable-libcaca --enable-libcdio --enable-libcodec2 --enable-libdav1d --enable-libflite --enable-libfontconfig --enable-libfreetype --enable-libfribidi --enable-libglslang --enable-libgme --enable-libgsm --enable-libharfbuzz --enable-libmp3lame --enable-libmysofa --enable-libopenjpeg --enable-libopenmpt --enable-libopus --enable-librubberband --enable-libshine --enable-libsnappy --enable-libsoxr --enable-libspeex --enable-libtheora --enable-libtwolame --enable-libvidstab --enable-libvorbis --enable-libvpx --enable-libwebp --enable-libx265 --enable-libxml2 --enable-libxvid --enable-libzimg --enable-openal --enable-opencl --enable-opengl --disable-sndio --enable-libvpl --disable-libmfx --enable-libdc1394 --enable-libdrm --enable-libiec61883 --enable-chromaprint --enable-frei0r --enable-ladspa --enable-libbluray --enable-libjack --enable-libpulse --enable-librabbitmq --enable-librist --enable-libsrt --enable-libssh --enable-libsvtav1 --enable-libx264 --enable-libzmq --enable-libzvbi --enable-lv2 --enable-sdl2 --enable-libplacebo --enable-librav1e --enable-pocketsphinx --enable-librsvg --enable-libjxl --enable-shared\n",
      "  libavutil      58. 29.100 / 58. 29.100\n",
      "  libavcodec     60. 31.102 / 60. 31.102\n",
      "  libavformat    60. 16.100 / 60. 16.100\n",
      "  libavdevice    60.  3.100 / 60.  3.100\n",
      "  libavfilter     9. 12.100 /  9. 12.100\n",
      "  libswscale      7.  5.100 /  7.  5.100\n",
      "  libswresample   4. 12.100 /  4. 12.100\n",
      "  libpostproc    57.  3.100 / 57.  3.100\n",
      "Input #0, image2, from '/home/ubuntu/Documents/animations_singapore/complex_roof/2d/watermarked/*.png':\n",
      "  Duration: 00:00:11.92, start: 0.000000, bitrate: N/A\n",
      "  Stream #0:0: Video: png, rgb24(pc, gbr/unknown/unknown), 1440x757, 13 fps, 13 tbr, 13 tbn\n",
      "Stream mapping:\n",
      "  Stream #0:0 (png) -> setpts:default\n",
      "  scale:default -> Stream #0:0 (libx264)\n",
      "Press [q] to stop, [?] for help\n",
      "[libx264 @ 0x59113504b9c0] using cpu capabilities: MMX2 SSE2Fast SSSE3 SSE4.2 AVX FMA3 BMI2 AVX2\n",
      "[libx264 @ 0x59113504b9c0] profile High, level 5.0, 4:2:0, 8-bit\n",
      "[libx264 @ 0x59113504b9c0] 264 - core 164 r3108 31e19f9 - H.264/MPEG-4 AVC codec - Copyleft 2003-2023 - http://www.videolan.org/x264.html - options: cabac=1 ref=5 deblock=1:0:0 analyse=0x3:0x113 me=hex subme=8 psy=1 psy_rd=1.00:0.00 mixed_ref=1 me_range=16 chroma_me=1 trellis=2 8x8dct=1 cqm=0 deadzone=21,11 fast_pskip=1 chroma_qp_offset=-2 threads=18 lookahead_threads=3 sliced_threads=0 nr=0 decimate=1 interlaced=0 bluray_compat=0 constrained_intra=0 bframes=3 b_pyramid=2 b_adapt=1 b_bias=0 direct=3 weightb=1 open_gop=0 weightp=2 keyint=250 keyint_min=13 scenecut=40 intra_refresh=0 rc_lookahead=50 rc=crf mbtree=1 crf=24.0 qcomp=0.60 qpmin=0 qpmax=69 qpstep=4 ip_ratio=1.40 aq=1:1.00\n",
      "Output #0, mp4, to '/home/ubuntu/Documents/animations_singapore/complex_roof/2d/videos/watermarked_size1920_speed1.0.mp4':\n",
      "  Metadata:\n",
      "    encoder         : Lavf60.16.100\n",
      "  Stream #0:0: Video: h264 (avc1 / 0x31637661), yuv420p(tv, progressive), 1920x1010, q=2-31, 13 fps, 13312 tbn\n",
      "    Metadata:\n",
      "      encoder         : Lavc60.31.102 libx264\n",
      "    Side data:\n",
      "      cpb: bitrate max/min/avg: 0/0/0 buffer size: 0 vbv_delay: N/A\n",
      "[out#0/mp4 @ 0x59113504a880] video:4019kB audio:0kB subtitle:0kB other streams:0kB global headers:0kB muxing overhead: 0.037449%\n",
      "frame=  155 fps= 22 q=-1.0 Lsize=    4020kB time=00:00:11.69 bitrate=2816.5kbits/s speed=1.63x    \n",
      "[libx264 @ 0x59113504b9c0] frame I:2     Avg QP:19.32  size: 40427\n",
      "[libx264 @ 0x59113504b9c0] frame P:153   Avg QP:23.49  size: 26362\n",
      "[libx264 @ 0x59113504b9c0] mb I  I16..4: 42.1% 53.2%  4.7%\n",
      "[libx264 @ 0x59113504b9c0] mb P  I16..4: 19.1% 20.2%  0.1%  P16..4: 31.0%  6.7%  1.7%  0.0%  0.0%    skip:21.2%\n",
      "[libx264 @ 0x59113504b9c0] 8x8 transform intra:51.3% inter:97.2%\n",
      "[libx264 @ 0x59113504b9c0] coded y,uvDC,uvAC intra: 18.8% 68.3% 13.8% inter: 17.3% 21.7% 1.5%\n",
      "[libx264 @ 0x59113504b9c0] i16 v,h,dc,p:  9% 24%  6% 62%\n",
      "[libx264 @ 0x59113504b9c0] i8 v,h,dc,ddl,ddr,vr,hd,vl,hu:  9% 14% 14%  9% 11%  9% 13% 10% 12%\n",
      "[libx264 @ 0x59113504b9c0] i4 v,h,dc,ddl,ddr,vr,hd,vl,hu: 15% 15% 17%  6% 12%  7% 11%  5% 10%\n",
      "[libx264 @ 0x59113504b9c0] i8c dc,h,v,p: 24% 27% 13% 36%\n",
      "[libx264 @ 0x59113504b9c0] Weighted P-Frames: Y:0.0% UV:0.0%\n",
      "[libx264 @ 0x59113504b9c0] ref P L0: 39.9%  2.4% 19.9% 14.0% 12.4% 11.4%\n",
      "[libx264 @ 0x59113504b9c0] kb/s:2760.54\n",
      "ffmpeg version 6.1.1-3ubuntu5 Copyright (c) 2000-2023 the FFmpeg developers\n",
      "  built with gcc 13 (Ubuntu 13.2.0-23ubuntu3)\n",
      "  configuration: --prefix=/usr --extra-version=3ubuntu5 --toolchain=hardened --libdir=/usr/lib/x86_64-linux-gnu --incdir=/usr/include/x86_64-linux-gnu --arch=amd64 --enable-gpl --disable-stripping --disable-omx --enable-gnutls --enable-libaom --enable-libass --enable-libbs2b --enable-libcaca --enable-libcdio --enable-libcodec2 --enable-libdav1d --enable-libflite --enable-libfontconfig --enable-libfreetype --enable-libfribidi --enable-libglslang --enable-libgme --enable-libgsm --enable-libharfbuzz --enable-libmp3lame --enable-libmysofa --enable-libopenjpeg --enable-libopenmpt --enable-libopus --enable-librubberband --enable-libshine --enable-libsnappy --enable-libsoxr --enable-libspeex --enable-libtheora --enable-libtwolame --enable-libvidstab --enable-libvorbis --enable-libvpx --enable-libwebp --enable-libx265 --enable-libxml2 --enable-libxvid --enable-libzimg --enable-openal --enable-opencl --enable-opengl --disable-sndio --enable-libvpl --disable-libmfx --enable-libdc1394 --enable-libdrm --enable-libiec61883 --enable-chromaprint --enable-frei0r --enable-ladspa --enable-libbluray --enable-libjack --enable-libpulse --enable-librabbitmq --enable-librist --enable-libsrt --enable-libssh --enable-libsvtav1 --enable-libx264 --enable-libzmq --enable-libzvbi --enable-lv2 --enable-sdl2 --enable-libplacebo --enable-librav1e --enable-pocketsphinx --enable-librsvg --enable-libjxl --enable-shared\n",
      "  libavutil      58. 29.100 / 58. 29.100\n",
      "  libavcodec     60. 31.102 / 60. 31.102\n",
      "  libavformat    60. 16.100 / 60. 16.100\n",
      "  libavdevice    60.  3.100 / 60.  3.100\n",
      "  libavfilter     9. 12.100 /  9. 12.100\n",
      "  libswscale      7.  5.100 /  7.  5.100\n",
      "  libswresample   4. 12.100 /  4. 12.100\n",
      "  libpostproc    57.  3.100 / 57.  3.100\n",
      "Input #0, image2, from '/home/ubuntu/Documents/animations_singapore/complex_roof/2d/watermarked/*.png':\n",
      "  Duration: 00:00:11.92, start: 0.000000, bitrate: N/A\n",
      "  Stream #0:0: Video: png, rgb24(pc, gbr/unknown/unknown), 1440x757, 13 fps, 13 tbr, 13 tbn\n",
      "Stream mapping:\n",
      "  Stream #0:0 (png) -> setpts:default\n",
      "  scale:default -> Stream #0:0 (libx264)\n",
      "Press [q] to stop, [?] for help\n"
     ]
    },
    {
     "name": "stdout",
     "output_type": "stream",
     "text": [
      "command: ffmpeg -framerate 13 -pattern_type glob -i \"/home/ubuntu/Documents/animations_singapore/complex_roof/2d/watermarked/*.png\"     -filter_complex \"setpts=1.0*PTS,scale=1080:-2:flags=lanczos\"     -c:v libx264 -preset slow -crf 24 -pix_fmt yuv420p \"/home/ubuntu/Documents/animations_singapore/complex_roof/2d/videos/watermarked_size1080_speed1.0.mp4\"\n",
      "/home/ubuntu/Documents/animations_singapore\n"
     ]
    },
    {
     "name": "stderr",
     "output_type": "stream",
     "text": [
      "[libx264 @ 0x5e0ee04d99c0] using cpu capabilities: MMX2 SSE2Fast SSSE3 SSE4.2 AVX FMA3 BMI2 AVX2\n",
      "[libx264 @ 0x5e0ee04d99c0] profile High, level 3.1, 4:2:0, 8-bit\n",
      "[libx264 @ 0x5e0ee04d99c0] 264 - core 164 r3108 31e19f9 - H.264/MPEG-4 AVC codec - Copyleft 2003-2023 - http://www.videolan.org/x264.html - options: cabac=1 ref=5 deblock=1:0:0 analyse=0x3:0x113 me=hex subme=8 psy=1 psy_rd=1.00:0.00 mixed_ref=1 me_range=16 chroma_me=1 trellis=2 8x8dct=1 cqm=0 deadzone=21,11 fast_pskip=1 chroma_qp_offset=-2 threads=18 lookahead_threads=3 sliced_threads=0 nr=0 decimate=1 interlaced=0 bluray_compat=0 constrained_intra=0 bframes=3 b_pyramid=2 b_adapt=1 b_bias=0 direct=3 weightb=1 open_gop=0 weightp=2 keyint=250 keyint_min=13 scenecut=40 intra_refresh=0 rc_lookahead=50 rc=crf mbtree=1 crf=24.0 qcomp=0.60 qpmin=0 qpmax=69 qpstep=4 ip_ratio=1.40 aq=1:1.00\n",
      "Output #0, mp4, to '/home/ubuntu/Documents/animations_singapore/complex_roof/2d/videos/watermarked_size1080_speed1.0.mp4':\n",
      "  Metadata:\n",
      "    encoder         : Lavf60.16.100\n",
      "  Stream #0:0: Video: h264 (avc1 / 0x31637661), yuv420p(tv, progressive), 1080x568, q=2-31, 13 fps, 13312 tbn\n",
      "    Metadata:\n",
      "      encoder         : Lavc60.31.102 libx264\n",
      "    Side data:\n",
      "      cpb: bitrate max/min/avg: 0/0/0 buffer size: 0 vbv_delay: N/A\n",
      "[out#0/mp4 @ 0x5e0ee04d8880] video:1842kB audio:0kB subtitle:0kB other streams:0kB global headers:0kB muxing overhead: 0.143388%\n",
      "frame=  155 fps= 61 q=-1.0 Lsize=    1845kB time=00:00:11.69 bitrate=1292.6kbits/s speed=4.62x    \n",
      "[libx264 @ 0x5e0ee04d99c0] frame I:1     Avg QP:24.57  size: 18790\n",
      "[libx264 @ 0x5e0ee04d99c0] frame P:53    Avg QP:24.20  size: 13072\n",
      "[libx264 @ 0x5e0ee04d99c0] frame B:101   Avg QP:24.55  size: 11626\n",
      "[libx264 @ 0x5e0ee04d99c0] consecutive B-frames:  1.9% 31.0%  7.7% 59.4%\n",
      "[libx264 @ 0x5e0ee04d99c0] mb I  I16..4: 23.7% 69.1%  7.2%\n",
      "[libx264 @ 0x5e0ee04d99c0] mb P  I16..4: 13.2% 29.1%  0.3%  P16..4: 25.1% 10.7%  3.1%  0.0%  0.0%    skip:18.5%\n",
      "[libx264 @ 0x5e0ee04d99c0] mb B  I16..4:  6.2% 14.8%  0.1%  B16..8: 29.8% 19.4%  2.3%  direct: 2.6%  skip:24.7%  L0:56.7% L1:40.1% BI: 3.2%\n",
      "[libx264 @ 0x5e0ee04d99c0] 8x8 transform intra:69.3% inter:98.0%\n",
      "[libx264 @ 0x5e0ee04d99c0] direct mvs  spatial:91.1% temporal:8.9%\n",
      "[libx264 @ 0x5e0ee04d99c0] coded y,uvDC,uvAC intra: 39.5% 84.1% 36.5% inter: 26.6% 30.8% 5.5%\n",
      "[libx264 @ 0x5e0ee04d99c0] i16 v,h,dc,p:  7% 23%  5% 64%\n",
      "[libx264 @ 0x5e0ee04d99c0] i8 v,h,dc,ddl,ddr,vr,hd,vl,hu: 10% 18% 12%  8% 10%  8% 12%  9% 12%\n",
      "[libx264 @ 0x5e0ee04d99c0] i4 v,h,dc,ddl,ddr,vr,hd,vl,hu: 12% 18% 18%  6% 11%  8% 12%  6% 10%\n",
      "[libx264 @ 0x5e0ee04d99c0] i8c dc,h,v,p: 33% 26% 13% 28%\n",
      "[libx264 @ 0x5e0ee04d99c0] Weighted P-Frames: Y:0.0% UV:0.0%\n",
      "[libx264 @ 0x5e0ee04d99c0] ref P L0: 37.4%  4.3% 23.8% 17.8% 16.4%  0.3%\n",
      "[libx264 @ 0x5e0ee04d99c0] ref B L0: 55.0% 25.1% 15.8%  4.1%\n",
      "[libx264 @ 0x5e0ee04d99c0] ref B L1: 91.4%  8.6%\n",
      "[libx264 @ 0x5e0ee04d99c0] kb/s:1265.31\n"
     ]
    }
   ],
   "source": [
    "if turn_into_video:\n",
    "    for image_size in gif_size_list:\n",
    "        for speed_multiplier in speed_multiplier_list:\n",
    "            video_out = generate_mp4_from_images(\n",
    "                images_dir=images_with_watermark_path_dir, \n",
    "                video_dir=videos_path,\n",
    "                image_size=image_size,\n",
    "                speed_multiplier=speed_multiplier,\n",
    "            )\n"
   ]
  },
  {
   "cell_type": "code",
   "execution_count": 20,
   "metadata": {},
   "outputs": [
    {
     "name": "stderr",
     "output_type": "stream",
     "text": [
      "ffmpeg version 6.1.1-3ubuntu5 Copyright (c) 2000-2023 the FFmpeg developers\n",
      "  built with gcc 13 (Ubuntu 13.2.0-23ubuntu3)\n",
      "  configuration: --prefix=/usr --extra-version=3ubuntu5 --toolchain=hardened --libdir=/usr/lib/x86_64-linux-gnu --incdir=/usr/include/x86_64-linux-gnu --arch=amd64 --enable-gpl --disable-stripping --disable-omx --enable-gnutls --enable-libaom --enable-libass --enable-libbs2b --enable-libcaca --enable-libcdio --enable-libcodec2 --enable-libdav1d --enable-libflite --enable-libfontconfig --enable-libfreetype --enable-libfribidi --enable-libglslang --enable-libgme --enable-libgsm --enable-libharfbuzz --enable-libmp3lame --enable-libmysofa --enable-libopenjpeg --enable-libopenmpt --enable-libopus --enable-librubberband --enable-libshine --enable-libsnappy --enable-libsoxr --enable-libspeex --enable-libtheora --enable-libtwolame --enable-libvidstab --enable-libvorbis --enable-libvpx --enable-libwebp --enable-libx265 --enable-libxml2 --enable-libxvid --enable-libzimg --enable-openal --enable-opencl --enable-opengl --disable-sndio --enable-libvpl --disable-libmfx --enable-libdc1394 --enable-libdrm --enable-libiec61883 --enable-chromaprint --enable-frei0r --enable-ladspa --enable-libbluray --enable-libjack --enable-libpulse --enable-librabbitmq --enable-librist --enable-libsrt --enable-libssh --enable-libsvtav1 --enable-libx264 --enable-libzmq --enable-libzvbi --enable-lv2 --enable-sdl2 --enable-libplacebo --enable-librav1e --enable-pocketsphinx --enable-librsvg --enable-libjxl --enable-shared\n",
      "  libavutil      58. 29.100 / 58. 29.100\n",
      "  libavcodec     60. 31.102 / 60. 31.102\n",
      "  libavformat    60. 16.100 / 60. 16.100\n",
      "  libavdevice    60.  3.100 / 60.  3.100\n",
      "  libavfilter     9. 12.100 /  9. 12.100\n",
      "  libswscale      7.  5.100 /  7.  5.100\n",
      "  libswresample   4. 12.100 /  4. 12.100\n",
      "  libpostproc    57.  3.100 / 57.  3.100\n",
      "Input #0, mov,mp4,m4a,3gp,3g2,mj2, from '/home/ubuntu/Documents/animations_singapore/complex_roof/2d/videos/watermarked_size1920_speed1.0.mp4':\n",
      "  Metadata:\n",
      "    major_brand     : isom\n",
      "    minor_version   : 512\n",
      "    compatible_brands: isomiso2avc1mp41\n",
      "    encoder         : Lavf60.16.100\n",
      "  Duration: 00:00:11.92, start: 0.000000, bitrate: 2762 kb/s\n",
      "  Stream #0:0[0x1](und): Video: h264 (High) (avc1 / 0x31637661), yuv420p(progressive), 1920x1010, 2761 kb/s, 13 fps, 13 tbr, 13312 tbn (default)\n",
      "    Metadata:\n",
      "      handler_name    : VideoHandler\n",
      "      vendor_id       : [0][0][0][0]\n",
      "      encoder         : Lavc60.31.102 libx264\n",
      "Stream mapping:\n",
      "  Stream #0:0 (h264) -> minterpolate:default\n",
      "  setpts:default -> Stream #0:0 (libx264)\n",
      "Press [q] to stop, [?] for help\n"
     ]
    },
    {
     "name": "stdout",
     "output_type": "stream",
     "text": [
      "command: ffmpeg -y -i \"/home/ubuntu/Documents/animations_singapore/complex_roof/2d/videos/watermarked_size1920_speed1.0.mp4\" -filter_complex \"[0:v]minterpolate=mi_mode=mci:mc_mode=none:me_mode=bidir:fps=24[v];[v]setpts=1*PTS\" \"/home/ubuntu/Documents/animations_singapore/complex_roof/2d/videos/watermarked_size1920_speed1.0_interpolated.mp4\"\n",
      "/home/ubuntu/Documents/animations_singapore\n"
     ]
    },
    {
     "name": "stderr",
     "output_type": "stream",
     "text": [
      "[libx264 @ 0x56835ebf53c0] using cpu capabilities: MMX2 SSE2Fast SSSE3 SSE4.2 AVX FMA3 BMI2 AVX2\n",
      "[libx264 @ 0x56835ebf53c0] profile High, level 4.0, 4:2:0, 8-bit\n",
      "[libx264 @ 0x56835ebf53c0] 264 - core 164 r3108 31e19f9 - H.264/MPEG-4 AVC codec - Copyleft 2003-2023 - http://www.videolan.org/x264.html - options: cabac=1 ref=3 deblock=1:0:0 analyse=0x3:0x113 me=hex subme=7 psy=1 psy_rd=1.00:0.00 mixed_ref=1 me_range=16 chroma_me=1 trellis=1 8x8dct=1 cqm=0 deadzone=21,11 fast_pskip=1 chroma_qp_offset=-2 threads=18 lookahead_threads=3 sliced_threads=0 nr=0 decimate=1 interlaced=0 bluray_compat=0 constrained_intra=0 bframes=3 b_pyramid=2 b_adapt=1 b_bias=0 direct=1 weightb=1 open_gop=0 weightp=2 keyint=250 keyint_min=24 scenecut=40 intra_refresh=0 rc_lookahead=40 rc=crf mbtree=1 crf=23.0 qcomp=0.60 qpmin=0 qpmax=69 qpstep=4 ip_ratio=1.40 aq=1:1.00\n",
      "Output #0, mp4, to '/home/ubuntu/Documents/animations_singapore/complex_roof/2d/videos/watermarked_size1920_speed1.0_interpolated.mp4':\n",
      "  Metadata:\n",
      "    major_brand     : isom\n",
      "    minor_version   : 512\n",
      "    compatible_brands: isomiso2avc1mp41\n",
      "    encoder         : Lavf60.16.100\n",
      "  Stream #0:0: Video: h264 (avc1 / 0x31637661), yuv420p(progressive), 1920x1010, q=2-31, 24 fps, 12288 tbn\n",
      "    Metadata:\n",
      "      encoder         : Lavc60.31.102 libx264\n",
      "    Side data:\n",
      "      cpb: bitrate max/min/avg: 0/0/0 buffer size: 0 vbv_delay: N/A\n",
      "[out#0/mp4 @ 0x56835ebf4280] video:6051kB audio:0kB subtitle:0kB other streams:0kB global headers:0kB muxing overhead: 0.069026%\n",
      "frame=  283 fps=1.1 q=-1.0 Lsize=    6055kB time=00:00:11.66 bitrate=4251.7kbits/s speed=0.0468x    \n",
      "[libx264 @ 0x56835ebf53c0] frame I:2     Avg QP:19.94  size: 40338\n",
      "[libx264 @ 0x56835ebf53c0] frame P:147   Avg QP:22.54  size: 23976\n",
      "[libx264 @ 0x56835ebf53c0] frame B:134   Avg QP:24.22  size: 19331\n",
      "[libx264 @ 0x56835ebf53c0] consecutive B-frames:  8.1% 83.4%  8.5%  0.0%\n",
      "[libx264 @ 0x56835ebf53c0] mb I  I16..4: 41.4% 54.5%  4.1%\n",
      "[libx264 @ 0x56835ebf53c0] mb P  I16..4: 22.0% 31.2%  0.1%  P16..4: 21.3%  3.7%  0.7%  0.0%  0.0%    skip:20.9%\n",
      "[libx264 @ 0x56835ebf53c0] mb B  I16..4:  9.6%  9.7%  0.0%  B16..8: 32.5%  6.9%  0.5%  direct: 4.9%  skip:35.8%  L0:39.1% L1:56.9% BI: 4.0%\n",
      "[libx264 @ 0x56835ebf53c0] 8x8 transform intra:56.4% inter:95.2%\n",
      "[libx264 @ 0x56835ebf53c0] coded y,uvDC,uvAC intra: 20.9% 71.5% 9.9% inter: 15.0% 29.1% 0.3%\n",
      "[libx264 @ 0x56835ebf53c0] i16 v,h,dc,p: 11% 23%  5% 60%\n",
      "[libx264 @ 0x56835ebf53c0] i8 v,h,dc,ddl,ddr,vr,hd,vl,hu: 21% 24% 25%  5%  5%  4%  6%  4%  4%\n",
      "[libx264 @ 0x56835ebf53c0] i4 v,h,dc,ddl,ddr,vr,hd,vl,hu: 25% 26% 23%  4%  6%  4%  6%  2%  3%\n",
      "[libx264 @ 0x56835ebf53c0] i8c dc,h,v,p: 41% 26% 16% 18%\n",
      "[libx264 @ 0x56835ebf53c0] Weighted P-Frames: Y:0.0% UV:0.0%\n",
      "[libx264 @ 0x56835ebf53c0] ref P L0: 57.3%  4.3% 22.6% 15.8%\n",
      "[libx264 @ 0x56835ebf53c0] ref B L0: 71.2% 27.8%  1.0%\n",
      "[libx264 @ 0x56835ebf53c0] kb/s:4203.31\n",
      "ffmpeg version 6.1.1-3ubuntu5 Copyright (c) 2000-2023 the FFmpeg developers\n",
      "  built with gcc 13 (Ubuntu 13.2.0-23ubuntu3)\n",
      "  configuration: --prefix=/usr --extra-version=3ubuntu5 --toolchain=hardened --libdir=/usr/lib/x86_64-linux-gnu --incdir=/usr/include/x86_64-linux-gnu --arch=amd64 --enable-gpl --disable-stripping --disable-omx --enable-gnutls --enable-libaom --enable-libass --enable-libbs2b --enable-libcaca --enable-libcdio --enable-libcodec2 --enable-libdav1d --enable-libflite --enable-libfontconfig --enable-libfreetype --enable-libfribidi --enable-libglslang --enable-libgme --enable-libgsm --enable-libharfbuzz --enable-libmp3lame --enable-libmysofa --enable-libopenjpeg --enable-libopenmpt --enable-libopus --enable-librubberband --enable-libshine --enable-libsnappy --enable-libsoxr --enable-libspeex --enable-libtheora --enable-libtwolame --enable-libvidstab --enable-libvorbis --enable-libvpx --enable-libwebp --enable-libx265 --enable-libxml2 --enable-libxvid --enable-libzimg --enable-openal --enable-opencl --enable-opengl --disable-sndio --enable-libvpl --disable-libmfx --enable-libdc1394 --enable-libdrm --enable-libiec61883 --enable-chromaprint --enable-frei0r --enable-ladspa --enable-libbluray --enable-libjack --enable-libpulse --enable-librabbitmq --enable-librist --enable-libsrt --enable-libssh --enable-libsvtav1 --enable-libx264 --enable-libzmq --enable-libzvbi --enable-lv2 --enable-sdl2 --enable-libplacebo --enable-librav1e --enable-pocketsphinx --enable-librsvg --enable-libjxl --enable-shared\n",
      "  libavutil      58. 29.100 / 58. 29.100\n",
      "  libavcodec     60. 31.102 / 60. 31.102\n",
      "  libavformat    60. 16.100 / 60. 16.100\n",
      "  libavdevice    60.  3.100 / 60.  3.100\n",
      "  libavfilter     9. 12.100 /  9. 12.100\n",
      "  libswscale      7.  5.100 /  7.  5.100\n",
      "  libswresample   4. 12.100 /  4. 12.100\n",
      "  libpostproc    57.  3.100 / 57.  3.100\n",
      "Input #0, mov,mp4,m4a,3gp,3g2,mj2, from '/home/ubuntu/Documents/animations_singapore/complex_roof/2d/videos/watermarked_size1080_speed1.0.mp4':\n",
      "  Metadata:\n",
      "    major_brand     : isom\n",
      "    minor_version   : 512\n",
      "    compatible_brands: isomiso2avc1mp41\n",
      "    encoder         : Lavf60.16.100\n",
      "  Duration: 00:00:11.92, start: 0.000000, bitrate: 1267 kb/s\n",
      "  Stream #0:0[0x1](und): Video: h264 (High) (avc1 / 0x31637661), yuv420p(progressive), 1080x568, 1265 kb/s, 13 fps, 13 tbr, 13312 tbn (default)\n",
      "    Metadata:\n",
      "      handler_name    : VideoHandler\n",
      "      vendor_id       : [0][0][0][0]\n",
      "      encoder         : Lavc60.31.102 libx264\n"
     ]
    },
    {
     "name": "stdout",
     "output_type": "stream",
     "text": [
      "command: ffmpeg -y -i \"/home/ubuntu/Documents/animations_singapore/complex_roof/2d/videos/watermarked_size1080_speed1.0.mp4\" -filter_complex \"[0:v]minterpolate=mi_mode=mci:mc_mode=none:me_mode=bidir:fps=24[v];[v]setpts=1*PTS\" \"/home/ubuntu/Documents/animations_singapore/complex_roof/2d/videos/watermarked_size1080_speed1.0_interpolated.mp4\"\n",
      "/home/ubuntu/Documents/animations_singapore\n"
     ]
    },
    {
     "name": "stderr",
     "output_type": "stream",
     "text": [
      "Stream mapping:\n",
      "  Stream #0:0 (h264) -> minterpolate:default\n",
      "  setpts:default -> Stream #0:0 (libx264)\n",
      "Press [q] to stop, [?] for help\n",
      "[libx264 @ 0x5f228fab9d40] using cpu capabilities: MMX2 SSE2Fast SSSE3 SSE4.2 AVX FMA3 BMI2 AVX2\n",
      "[libx264 @ 0x5f228fab9d40] profile High, level 3.1, 4:2:0, 8-bit\n",
      "[libx264 @ 0x5f228fab9d40] 264 - core 164 r3108 31e19f9 - H.264/MPEG-4 AVC codec - Copyleft 2003-2023 - http://www.videolan.org/x264.html - options: cabac=1 ref=3 deblock=1:0:0 analyse=0x3:0x113 me=hex subme=7 psy=1 psy_rd=1.00:0.00 mixed_ref=1 me_range=16 chroma_me=1 trellis=1 8x8dct=1 cqm=0 deadzone=21,11 fast_pskip=1 chroma_qp_offset=-2 threads=18 lookahead_threads=3 sliced_threads=0 nr=0 decimate=1 interlaced=0 bluray_compat=0 constrained_intra=0 bframes=3 b_pyramid=2 b_adapt=1 b_bias=0 direct=1 weightb=1 open_gop=0 weightp=2 keyint=250 keyint_min=24 scenecut=40 intra_refresh=0 rc_lookahead=40 rc=crf mbtree=1 crf=23.0 qcomp=0.60 qpmin=0 qpmax=69 qpstep=4 ip_ratio=1.40 aq=1:1.00\n",
      "Output #0, mp4, to '/home/ubuntu/Documents/animations_singapore/complex_roof/2d/videos/watermarked_size1080_speed1.0_interpolated.mp4':\n",
      "  Metadata:\n",
      "    major_brand     : isom\n",
      "    minor_version   : 512\n",
      "    compatible_brands: isomiso2avc1mp41\n",
      "    encoder         : Lavf60.16.100\n",
      "  Stream #0:0: Video: h264 (avc1 / 0x31637661), yuv420p(progressive), 1080x568, q=2-31, 24 fps, 12288 tbn\n",
      "    Metadata:\n",
      "      encoder         : Lavc60.31.102 libx264\n",
      "    Side data:\n",
      "      cpb: bitrate max/min/avg: 0/0/0 buffer size: 0 vbv_delay: N/A\n",
      "[out#0/mp4 @ 0x5f228fab8c00] video:2522kB audio:0kB subtitle:0kB other streams:0kB global headers:0kB muxing overhead: 0.159733%\n",
      "frame=  283 fps=3.5 q=-1.0 Lsize=    2526kB time=00:00:11.66 bitrate=1773.6kbits/s speed=0.144x    \n",
      "[libx264 @ 0x5f228fab9d40] frame I:2     Avg QP:20.69  size: 18096\n",
      "[libx264 @ 0x5f228fab9d40] frame P:83    Avg QP:24.43  size: 10383\n",
      "[libx264 @ 0x5f228fab9d40] frame B:198   Avg QP:24.92  size:  8504\n",
      "[libx264 @ 0x5f228fab9d40] consecutive B-frames:  0.7% 10.6% 22.3% 66.4%\n",
      "[libx264 @ 0x5f228fab9d40] mb I  I16..4: 33.1% 59.5%  7.4%\n",
      "[libx264 @ 0x5f228fab9d40] mb P  I16..4: 16.5% 34.7%  0.4%  P16..4: 21.8%  5.8%  1.3%  0.0%  0.0%    skip:19.4%\n",
      "[libx264 @ 0x5f228fab9d40] mb B  I16..4:  6.5% 12.9%  0.1%  B16..8: 33.7% 11.7%  0.9%  direct: 3.9%  skip:30.4%  L0:54.9% L1:41.4% BI: 3.7%\n",
      "[libx264 @ 0x5f228fab9d40] 8x8 transform intra:66.6% inter:94.9%\n",
      "[libx264 @ 0x5f228fab9d40] coded y,uvDC,uvAC intra: 35.2% 81.2% 21.8% inter: 21.7% 33.9% 1.0%\n",
      "[libx264 @ 0x5f228fab9d40] i16 v,h,dc,p:  8% 21%  5% 66%\n",
      "[libx264 @ 0x5f228fab9d40] i8 v,h,dc,ddl,ddr,vr,hd,vl,hu: 16% 24% 19%  7%  7%  5%  9%  6%  7%\n",
      "[libx264 @ 0x5f228fab9d40] i4 v,h,dc,ddl,ddr,vr,hd,vl,hu: 21% 28% 20%  4%  7%  5%  8%  3%  4%\n",
      "[libx264 @ 0x5f228fab9d40] i8c dc,h,v,p: 40% 26% 15% 19%\n",
      "[libx264 @ 0x5f228fab9d40] Weighted P-Frames: Y:0.0% UV:0.0%\n",
      "[libx264 @ 0x5f228fab9d40] ref P L0: 49.1%  5.9% 25.2% 19.7%\n",
      "[libx264 @ 0x5f228fab9d40] ref B L0: 82.2% 12.9%  4.9%\n",
      "[libx264 @ 0x5f228fab9d40] ref B L1: 95.2%  4.8%\n",
      "[libx264 @ 0x5f228fab9d40] kb/s:1751.58\n"
     ]
    }
   ],
   "source": [
    "if generate_intermediate_frames:\n",
    "    for image_size in gif_size_list:\n",
    "        for speed_multiplier in speed_multiplier_list:\n",
    "            video_out = videos_path/f\"{images_with_watermark_path_dir.stem}_size{image_size}_speed{speed_multiplier}.mp4\"\n",
    "            generate_frames_for_video(video_file=video_out)\n"
   ]
  }
 ],
 "metadata": {
  "kernelspec": {
   "display_name": "py312",
   "language": "python",
   "name": "python3"
  },
  "language_info": {
   "codemirror_mode": {
    "name": "ipython",
    "version": 3
   },
   "file_extension": ".py",
   "mimetype": "text/x-python",
   "name": "python",
   "nbconvert_exporter": "python",
   "pygments_lexer": "ipython3",
   "version": "3.12.9"
  }
 },
 "nbformat": 4,
 "nbformat_minor": 2
}
